<svg preserveAspectRatio="xMidYMid meet" viewBox="24.8 176.3152 311.0508474576271 709.048" xmlns="http://www.w3.org/2000/svg" version="1.0" style="max-height: 500px" width="311.0508474576271" height="709.048">

<g stroke="none" fill="#000000" transform="translate(0.000000,1052.000000) scale(0.100000,-0.100000)">
<path d="M2589 8665 c-10 -5 -44 -23 -75 -40 -62 -32 -131 -104 -140 -144 -3&#xA;-14 -12 -39 -19 -56 -7 -16 -21 -57 -31 -89 -15 -47 -16 -60 -6 -64 10 -3 9&#xA;-9 -4 -23 -16 -17 -16 -29 -7 -108 10 -86 11 -90 51 -127 63 -60 105 -88 129&#xA;-86 14 1 24 -5 28 -17 3 -11 17 -22 30 -25 13 -3 29 -15 35 -26 6 -11 26 -22&#xA;46 -26 25 -5 38 -14 45 -31 13 -35 11 -51 -5 -30 -22 29 -29 19 -24 -33 5 -53&#xA;-7 -74 -27 -47 -15 21 -35 3 -35 -30 0 -32 36 -100 60 -115 11 -7 20 -17 20&#xA;-21 0 -8 -73 -1 -112 10 -24 6 -23 -12 2 -37 23 -23 27 -45 6 -37 -9 4 -16 -3&#xA;-20 -16 -5 -20 -6 -20 -26 -2 -20 18 -28 41 -10 30 6 -3 10 5 10 19 0 18 -4&#xA;24 -14 20 -8 -3 -17 0 -21 5 -14 24 -26 -3 -19 -46 5 -36 4 -45 -7 -41 -8 3&#xA;-15 14 -17 26 -2 14 -11 22 -22 22 -10 0 -22 5 -26 11 -5 8 -9 7 -14 -1 -5 -8&#xA;-15 -10 -26 -5 -11 5 -23 7 -28 6 -35 -8 -106 -7 -133 2 -27 9 -36 8 -52 -7&#xA;-12 -11 -21 -14 -26 -7 -3 6 -13 11 -21 11 -14 0 -18 -7 -44 -78 -11 -27 -17&#xA;-32 -39 -30 -14 2 -28 -1 -30 -7 -2 -5 -11 -15 -19 -21 -12 -9 -12 -15 2 -43&#xA;21 -39 8 -61 -34 -61 -28 0 -28 0 -32 83 -3 45 -1 87 4 93 6 8 -1 14 -18 18&#xA;-18 5 -30 3 -36 -6 -7 -10 -11 -10 -21 2 -6 8 -27 15 -45 16 -31 1 -33 -1 -27&#xA;-24 4 -15 1 -28 -6 -33 -10 -6 -10 -11 -1 -22 10 -11 9 -17 -4 -28 -13 -11&#xA;-17 -10 -25 2 -8 12 -12 10 -27 -8 -13 -18 -30 -23 -80 -26 -34 -3 -65 -1 -68&#xA;4 -3 5 3 9 14 9 26 0 66 45 58 66 -4 11 -12 14 -24 8 -9 -4 -34 -6 -56 -5 -23&#xA;1 -54 -7 -78 -19 -21 -11 -45 -20 -53 -20 -8 0 -15 -7 -15 -15 0 -9 -8 -19&#xA;-17 -22 -10 -4 -28 -14 -41 -24 l-23 -18 21 -11 c16 -9 25 -8 37 1 13 11 15&#xA;10 12 -6 -6 -27 -76 -46 -93 -25 -13 17 -62 18 -79 1 -8 -8 -5 -11 14 -11 14&#xA;0 29 -3 32 -6 10 -10 -94 -55 -132 -58 -30 -2 -36 -6 -43 -34 -9 -33 -37 -55&#xA;-65 -50 -10 2 -20 -8 -27 -29 -6 -18 -40 -61 -76 -95 -115 -111 -239 -277&#xA;-254 -341 -6 -27 -31 -46 -43 -33 -4 3 -1 12 5 18 7 7 12 19 12 27 0 8 9 24&#xA;20 36 19 20 19 23 4 36 -14 11 -18 10 -35 -11 -10 -14 -19 -31 -19 -39 0 -8&#xA;-8 -20 -17 -27 -17 -12 -17 -13 -1 -14 14 0 11 -11 -18 -67 -26 -48 -35 -76&#xA;-32 -100 2 -18 1 -33 -3 -33 -8 0 -27 -49 -28 -75 -1 -33 -21 -297 -25 -335&#xA;-6 -58 14 -482 25 -523 6 -24 19 -42 34 -49 23 -10 23 -12 8 -42 -13 -29 -13&#xA;-40 1 -112 9 -43 23 -104 32 -134 9 -30 20 -82 24 -115 4 -33 11 -71 17 -85 6&#xA;-14 14 -50 18 -80 4 -30 12 -66 17 -80 6 -14 10 -47 9 -74 -2 -62 30 -203 76&#xA;-336 4 -11 7 -10 14 8 4 12 13 22 19 22 13 0 13 -17 0 -25 -5 -3 -10 -29 -10&#xA;-56 0 -50 24 -117 85 -245 14 -28 25 -56 25 -62 0 -7 5 -12 10 -12 6 0 10 -13&#xA;10 -30 0 -16 9 -44 20 -62 11 -18 20 -41 20 -50 0 -9 6 -21 14 -25 7 -5 16&#xA;-34 19 -67 3 -32 11 -64 16 -69 6 -6 11 -27 11 -47 0 -19 9 -63 20 -98 17 -53&#xA;18 -69 8 -106 -14 -53 -6 -80 22 -73 15 4 20 0 20 -15 0 -15 -5 -18 -19 -13&#xA;-14 4 -23 0 -30 -14 -14 -25 -14 -58 -1 -63 7 -2 5 -17 -5 -41 -13 -32 -15&#xA;-76 -12 -280 4 -250 16 -352 57 -484 21 -70 98 -224 117 -236 7 -4 10 -14 6&#xA;-22 -3 -9 13 -36 39 -68 24 -28 51 -62 59 -74 22 -32 90 -82 196 -142 160 -90&#xA;322 -99 472 -25 180 89 207 114 329 296 65 96 87 153 103 259 7 46 18 91 26&#xA;100 8 9 13 40 13 76 0 33 5 85 10 114 6 30 15 117 19 194 6 100 14 149 26 174&#xA;14 27 16 40 7 70 -19 62 -23 92 -32 236 -10 149 -31 311 -50 385 -7 25 -14 64&#xA;-15 88 -1 23 -5 42 -9 42 -3 0 -10 0 -16 0 -5 0 -10 -7 -10 -15 0 -8 -4 -15&#xA;-10 -15 -15 0 -12 22 10 65 19 38 20 41 3 53 -10 7 -18 23 -18 35 0 16 -15 29&#xA;-57 51 -64 34 -84 29 -47 -10 l24 -27 -29 7 c-49 12 -96 34 -96 45 0 6 5 11&#xA;10 11 20 0 10 27 -14 38 -13 6 -39 31 -57 57 -30 42 -35 45 -46 29 -10 -14&#xA;-15 -15 -28 -4 -8 7 -15 21 -15 32 0 11 -9 33 -20 48 -17 24 -25 27 -58 23&#xA;-27 -4 -42 -1 -51 11 -17 21 -50 20 -73 -1 -10 -9 -18 -11 -18 -5 0 19 31 42&#xA;56 42 32 0 44 43 20 69 -12 13 -14 21 -6 26 8 5 6 13 -6 26 -14 15 -14 21 -4&#xA;34 10 12 8 16 -11 23 l-23 9 21 11 c12 7 25 21 28 32 8 24 -18 70 -40 70 -15&#xA;0 -31 38 -20 48 4 4 10 1 12 -5 5 -13 43 -19 43 -7 0 21 -24 45 -43 42 -21 -3&#xA;-22 2 -28 77 -3 44 -2 85 2 91 5 6 8 39 7 72 -1 51 -5 62 -19 62 -9 0 -22 -7&#xA;-29 -15 -7 -8 -21 -15 -31 -15 -15 0 -12 8 17 51 43 64 53 98 31 111 -15 8&#xA;-15 12 -2 41 8 18 17 50 21 72 6 29 9 34 12 18 4 -27 15 -29 33 -7 8 10 9 18&#xA;3 22 -6 4 -10 17 -10 28 0 19 4 21 24 13 16 -6 29 -6 38 2 11 9 14 8 14 -5 0&#xA;-16 46 -34 57 -22 9 8 -74 86 -92 86 -21 0 -19 13 6 28 16 11 18 16 9 28 -10&#xA;11 -9 14 9 14 24 0 39 26 24 41 -12 12 -73 -8 -90 -29 -7 -9 -13 -27 -13 -41&#xA;0 -16 -3 -22 -10 -15 -16 16 9 94 31 94 10 0 24 8 31 18 7 9 33 27 56 40 35&#xA;19 46 21 58 11 10 -9 18 -9 25 -2 8 8 5 13 -10 18 -12 3 -21 10 -21 15 0 16&#xA;69 40 117 40 27 0 54 5 61 12 9 9 15 9 23 1 7 -7 24 -9 39 -6 19 3 29 0 33&#xA;-11 9 -22 37 -20 37 2 0 11 14 25 33 35 17 9 56 30 85 47 29 16 59 30 66 30 7&#xA;0 24 21 39 48 14 26 40 61 59 79 55 52 68 69 68 85 0 9 16 35 35 58 19 23 42&#xA;55 52 70 9 16 34 36 55 46 53 24 67 42 45 58 -15 12 -14 15 11 37 15 14 40 31&#xA;55 39 36 18 77 66 77 89 0 10 14 37 30 60 32 44 112 241 112 276 0 11 5 55 10&#xA;98 8 59 7 81 -2 92 -7 8 -10 21 -7 28 2 7 -2 44 -10 82 -7 39 -18 108 -24 155&#xA;-6 47 -15 87 -20 88 -5 2 -9 10 -9 17 0 7 -7 16 -16 19 -13 5 -14 9 -4 21 19&#xA;22 5 30 -51 29 -37 0 -46 2 -38 12 6 8 6 20 -3 39 -10 21 -9 28 2 35 8 5 11&#xA;18 7 39 -6 28 -4 31 18 31 16 0 25 6 25 15 0 8 5 15 10 15 7 0 7 6 0 19 -5 11&#xA;-10 31 -10 44 0 34 -21 48 -58 41 -24 -5 -33 -2 -38 11 -5 12 -14 15 -30 11&#xA;-37 -10 -28 9 10 21 28 9 36 8 40 -3 3 -8 15 -14 26 -14 15 0 20 7 20 25 0 14&#xA;5 25 11 25 7 0 9 10 5 28 -12 51 -15 121 -6 127 5 3 7 12 4 20 -4 8 -11 12&#xA;-17 8 -7 -4 -8 0 -4 11 4 10 7 22 7 28 0 6 9 8 20 5 16 -4 20 0 20 18 0 12 -7&#xA;28 -16 36 -14 11 -14 13 0 21 9 5 16 16 16 24 0 8 -3 13 -7 11 -5 -3 -8 12 -8&#xA;34 -1 41 -12 61 -23 42 -5 -8 -14 -6 -30 7 -19 16 -22 25 -17 52 5 25 2 36&#xA;-12 44 -21 13 -63 1 -63 -18 -1 -21 -29 35 -29 57 0 11 8 31 19 45 22 29 38&#xA;20 56 -33 8 -24 18 -33 37 -35 15 -2 27 -9 27 -16 0 -22 25 -66 37 -66 16 0&#xA;48 -72 63 -140 31 -148 79 -175 80 -45 0 39 -29 188 -51 265 -44 154 -53 172&#xA;-129 260 -63 73 -119 102 -209 110 -44 3 -81 2 -92 -5z m41 -200 c0 -8 -7 -15&#xA;-15 -15 -16 0 -20 12 -8 23 11 12 23 8 23 -8z m116 -56 c4 -7 -1 -16 -10 -21&#xA;-9 -5 -16 -17 -16 -28 0 -10 -6 -20 -12 -22 -8 -3 -12 -19 -10 -42 3 -29 0&#xA;-37 -10 -34 -8 3 -14 24 -16 55 -3 45 0 54 25 77 31 29 39 31 49 15z m-132&#xA;-50 c-3 -5 -14 -9 -25 -9 -15 0 -19 7 -19 32 l0 31 25 -23 c13 -12 22 -27 19&#xA;-31z m189 -133 c6 -16 -2 -28 -14 -20 -12 7 -11 34 0 34 5 0 11 -6 14 -14z&#xA;m-113 -16 c0 -5 -4 -10 -10 -10 -5 0 -10 5 -10 10 0 6 5 10 10 10 6 0 10 -4&#xA;10 -10z m150 -30 c0 -5 -4 -10 -9 -10 -4 0 -6 -11 -3 -25 2 -14 2 -25 -1 -25&#xA;-10 0 -38 51 -32 60 8 13 45 13 45 0z m67 -52 c-3 -7 -5 -2 -5 12 0 14 2 19 5&#xA;13 2 -7 2 -19 0 -25z m-197 -192 c0 -3 -4 -8 -10 -11 -5 -3 -10 -1 -10 4 0 6&#xA;5 11 10 11 6 0 10 -2 10 -4z m100 -77 c0 -5 -5 -9 -10 -9 -10 0 -30 41 -30 58&#xA;1 10 40 -39 40 -49z m70 -255 c0 -13 -4 -24 -9 -24 -11 0 -22 40 -15 52 9 15&#xA;24 -2 24 -28z m-85 -34 c3 -5 -3 -10 -14 -10 -12 0 -21 5 -21 10 0 6 6 10 14&#xA;10 8 0 18 -4 21 -10z m-64 -67 c26 -16 38 -33 23 -33 -9 0 -74 41 -74 46 0 9&#xA;23 3 51 -13z m104 -12 c8 -14 -13 -24 -33 -16 -14 5 -14 7 -2 15 19 12 27 12&#xA;35 1z m-1035 -61 c0 -5 -4 -10 -9 -10 -6 0 -13 5 -16 10 -3 6 1 10 9 10 9 0&#xA;16 -4 16 -10z m830 -10 c0 -5 -4 -10 -9 -10 -6 0 -13 5 -16 10 -3 6 1 10 9 10&#xA;9 0 16 -4 16 -10z m-1133 -56 c-3 -3 -12 -4 -19 -1 -8 3 -5 6 6 6 11 1 17 -2&#xA;13 -5z m23 -24 c0 -5 -4 -10 -10 -10 -5 0 -10 5 -10 10 0 6 5 10 10 10 6 0 10&#xA;-4 10 -10z m-75 -10 c-3 -5 -11 -10 -16 -10 -6 0 -7 5 -4 10 3 6 11 10 16 10&#xA;6 0 7 -4 4 -10z m155 -56 c0 -9 -5 -14 -12 -12 -18 6 -21 28 -4 28 9 0 16 -7&#xA;16 -16z m1205 -4 c3 -5 1 -10 -4 -10 -6 0 -11 5 -11 10 0 6 2 10 4 10 3 0 8&#xA;-4 11 -10z m43 -27 c-2 -9 -8 -18 -15 -20 -7 -3 -9 3 -6 16 6 25 26 28 21 4z&#xA;m-2000 -2165 l-1 -50 -18 34 c-20 39 -15 96 7 77 8 -6 12 -30 12 -61z m-8 -68&#xA;c0 -5 -4 -10 -10 -10 -5 0 -10 5 -10 10 0 6 5 10 10 10 6 0 10 -4 10 -10z&#xA;m460 -234 c0 -21 -28 -46 -45 -40 -8 4 -15 13 -15 21 0 12 3 13 15 3 16 -14&#xA;35 -6 35 16 0 8 2 14 5 14 3 0 5 -6 5 -14z m30 -96 c0 -5 -4 -10 -10 -10 -5 0&#xA;-10 5 -10 10 0 6 5 10 10 10 6 0 10 -4 10 -10z m-31 -24 c8 -10 9 -16 1 -21&#xA;-13 -8 -30 3 -30 21 0 18 14 18 29 0z m-505 -81 c-4 -8 -8 -15 -10 -15 -2 0&#xA;-4 7 -4 15 0 8 4 15 10 15 5 0 7 -7 4 -15z m370 -53 c-10 -14 -19 -21 -21 -15&#xA;-3 7 4 24 13 39 10 15 20 21 22 15 2 -6 -4 -24 -14 -39z m-14 -201 c0 -12 -20&#xA;-25 -27 -18 -7 7 6 27 18 27 5 0 9 -4 9 -9z m-100 -771 c0 -5 -5 -10 -11 -10&#xA;-5 0 -7 5 -4 10 3 6 8 10 11 10 2 0 4 -4 4 -10z m27 -42 c-3 -8 -6 -5 -6 6 -1&#xA;11 2 17 5 13 3 -3 4 -12 1 -19z m43 -108 c0 -5 -4 -10 -10 -10 -5 0 -10 5 -10&#xA;10 0 6 5 10 10 10 6 0 10 -4 10 -10z m36 -686 c-4 -12 -10 -14 -17 -7 -5 5 -7&#xA;17 -3 27 4 12 10 14 17 7 5 -5 7 -17 3 -27z m-66 -30 c0 -13 -4 -24 -10 -24&#xA;-5 0 -10 14 -10 31 0 17 4 28 10 24 6 -3 10 -17 10 -31z m140 26 c0 -5 -6 -10&#xA;-14 -10 -8 0 -17 -6 -19 -12 -3 -7 -6 -3 -6 10 -1 16 5 22 19 22 11 0 20 -4&#xA;20 -10z m13 -58 c-10 -11 -22 -17 -26 -15 -11 7 13 33 29 33 11 0 10 -5 -3&#xA;-18z m-98 -72 c21 -33 42 -60 47 -60 16 0 7 -19 -12 -25 -11 -3 -20 -11 -20&#xA;-16 0 -14 28 -11 33 4 2 6 14 -5 27 -26 27 -45 58 -66 71 -46 5 8 9 9 9 3 0&#xA;-6 -8 -18 -18 -28 -17 -15 -21 -15 -50 0 -18 8 -32 23 -32 32 0 12 -10 17 -35&#xA;19 -44 2 -44 -7 0 -46 19 -17 35 -35 35 -41 0 -5 9 -10 19 -10 22 0 81 -31 81&#xA;-42 0 -10 4 -10 -55 7 -35 11 -65 31 -102 67 -56 56 -63 68 -36 68 12 0 10 6&#xA;-10 23 -21 18 -27 32 -27 65 0 23 3 42 7 42 4 0 22 -14 40 -32 43 -42 45 -15&#xA;3 43 -24 34 -31 59 -16 59 1 0 20 -27 41 -60z"/>
<path d="M4649 8637 c-31 -18 -64 -42 -75 -53 -32 -32 -92 -119 -105 -150 -40&#xA;-104 -102 -382 -93 -423 11 -51 15 -61 25 -61 14 0 45 76 60 145 15 67 44 125&#xA;64 125 11 0 28 37 29 65 1 16 19 25 31 15 14 -11 13 -89 -1 -98 -6 -4 -19 -21&#xA;-29 -39 -12 -20 -23 -29 -33 -25 -12 4 -14 1 -9 -12 15 -38 19 -66 9 -66 -5 0&#xA;-12 -13 -14 -30 -4 -23 -1 -30 13 -30 17 0 32 -33 21 -45 -3 -3 -7 -36 -7 -73&#xA;-1 -37 -5 -80 -9 -95 -6 -21 -5 -27 5 -25 16 4 14 -49 -3 -70 -6 -7 -14 -31&#xA;-18 -54 -9 -47 4 -78 32 -78 14 0 18 -8 18 -34 0 -19 5 -36 11 -38 7 -2 5 -17&#xA;-7 -41 -16 -34 -21 -37 -46 -31 -37 8 -61 -11 -48 -36 13 -24 13 -30 -3 -30&#xA;-17 0 -35 -47 -36 -94 0 -22 -9 -76 -19 -120 -41 -174 -44 -201 -27 -261 9&#xA;-30 21 -55 26 -55 5 0 2 -11 -7 -25 -8 -13 -12 -30 -8 -36 4 -7 22 -55 40&#xA;-107 18 -53 42 -107 53 -121 22 -27 25 -33 57 -110 14 -32 31 -52 66 -73 26&#xA;-16 49 -35 49 -41 1 -7 3 -19 4 -27 1 -8 3 -21 4 -28 0 -7 20 -22 44 -32 48&#xA;-21 67 -39 92 -88 14 -28 21 -33 40 -28 22 6 24 3 23 -29 -1 -34 43 -115 63&#xA;-115 5 0 26 -27 46 -60 36 -57 44 -63 141 -111 82 -40 102 -53 98 -67 -4 -13&#xA;3 -20 29 -28 35 -11 62 0 31 12 -34 13 -16 31 27 27 79 -7 172 -20 195 -27 25&#xA;-8 29 -31 6 -40 -8 -3 -13 -10 -9 -16 4 -6 12 -6 24 2 14 9 27 5 64 -16 25&#xA;-15 51 -34 58 -42 7 -8 20 -12 30 -9 13 4 19 1 19 -8 0 -8 3 -30 6 -48 l5 -34&#xA;-16 31 c-18 35 -89 64 -108 45 -12 -12 8 -41 30 -41 10 0 12 -6 8 -21 -5 -15&#xA;-2 -22 14 -26 32 -8 25 -26 -8 -20 -25 5 -28 3 -24 -13 4 -13 0 -20 -10 -20&#xA;-16 0 -52 -48 -43 -58 4 -3 34 4 68 16 34 11 64 19 66 17 3 -2 -3 -16 -12 -31&#xA;-17 -24 -17 -26 1 -39 15 -12 19 -11 24 3 4 10 13 -7 28 -48 19 -58 20 -66 6&#xA;-76 -25 -19 -18 -42 38 -115 15 -20 27 -42 27 -48 0 -21 -30 -11 -51 19 -27&#xA;36 -43 29 -36 -16 3 -19 1 -36 -4 -39 -14 -9 -11 -51 5 -64 13 -11 13 -106 0&#xA;-171 -5 -22 -7 -23 -15 -7 -13 22 -44 8 -46 -22 -1 -15 5 -21 30 -23 l32 -4&#xA;-27 -13 c-32 -16 -35 -32 -12 -52 14 -12 14 -14 -5 -21 -27 -9 -27 -28 -1 -35&#xA;26 -7 26 -19 0 -26 -16 -4 -19 -11 -15 -30 4 -14 2 -28 -4 -31 -5 -4 -8 -13&#xA;-5 -20 3 -8 1 -17 -5 -21 -6 -3 -11 -22 -11 -41 0 -31 3 -34 28 -34 27 0 72&#xA;-34 60 -45 -3 -3 -11 1 -18 10 -16 20 -54 19 -71 -1 -10 -12 -23 -14 -50 -10&#xA;-33 5 -40 3 -58 -23 -12 -16 -21 -36 -21 -43 0 -8 -8 -22 -18 -31 -15 -13 -21&#xA;-14 -31 -4 -10 9 -17 6 -36 -15 -13 -16 -28 -34 -32 -41 -4 -7 -21 -21 -37&#xA;-31 -25 -16 -27 -20 -13 -28 10 -5 17 -13 17 -19 0 -12 -51 -34 -100 -44 l-35&#xA;-7 30 25 c46 38 22 44 -46 12 -52 -25 -60 -33 -56 -52 3 -16 -2 -24 -14 -28&#xA;-25 -8 -24 -29 2 -65 14 -18 19 -35 15 -47 -7 -17 -9 -16 -25 5 -22 29 -33 18&#xA;-25 -25 5 -24 2 -39 -10 -52 -9 -10 -15 -29 -15 -42 1 -13 -3 -37 -10 -52 -6&#xA;-16 -11 -52 -11 -80 0 -29 -5 -68 -10 -87 -6 -19 -13 -89 -16 -155 -3 -66 -10&#xA;-145 -16 -175 -6 -30 -12 -67 -15 -83 -3 -15 1 -42 10 -60 8 -18 18 -80 21&#xA;-142 4 -60 14 -162 23 -225 8 -63 15 -128 14 -144 -1 -16 5 -36 12 -45 8 -9&#xA;17 -48 21 -86 9 -103 30 -154 116 -284 118 -176 132 -188 300 -272 96 -47 112&#xA;-52 190 -56 59 -4 107 0 155 11 104 25 273 127 346 211 64 72 109 136 104 145&#xA;-4 6 3 23 14 39 12 16 21 32 21 35 0 4 12 24 26 45 76 116 128 495 105 766 -7&#xA;77 -13 156 -15 175 -1 19 -3 43 -4 53 -2 21 -22 23 -22 1 0 -8 -4 -12 -10 -9&#xA;-18 11 -11 42 10 48 19 5 21 12 18 74 -3 68 10 149 40 252 8 30 15 71 16 90 1&#xA;20 6 39 13 44 6 4 14 20 18 36 3 16 15 37 26 47 10 9 19 30 19 46 0 26 6 44&#xA;32 88 4 8 11 22 14 30 3 8 12 29 19 45 44 99 55 141 55 209 1 56 3 67 12 52&#xA;10 -17 12 -16 25 15 26 59 55 191 63 279 9 100 24 182 51 265 11 33 19 79 19&#xA;102 0 23 8 66 19 95 31 89 44 164 38 220 -5 43 -3 56 12 73 39 42 43 83 44&#xA;448 1 349 -2 384 -36 514 -7 28 -14 38 -20 30 -4 -7 -5 10 -1 36 5 40 3 52&#xA;-14 70 -30 34 -47 70 -34 75 16 5 -22 78 -47 92 -27 14 -31 13 -31 -10 0 -29&#xA;-13 -24 -34 13 -34 59 -151 207 -163 207 -7 0 -13 4 -13 9 0 6 -20 29 -45 52&#xA;-24 23 -53 58 -63 78 -10 20 -25 36 -33 37 -8 0 -21 2 -30 2 -10 1 -24 20 -34&#xA;44 -11 29 -19 38 -24 29 -6 -9 -11 -10 -15 -2 -4 6 -16 11 -26 11 -23 0 -90&#xA;38 -90 51 0 5 9 9 21 9 11 0 17 5 14 10 -3 6 -24 10 -46 10 -21 0 -39 -4 -39&#xA;-10 0 -13 -46 -13 -71 0 -10 6 -19 17 -19 25 0 17 16 20 24 6 7 -11 46 -2 46&#xA;10 0 5 -5 9 -10 9 -21 0 -70 44 -70 63 0 14 -5 17 -19 12 -11 -3 -33 3 -53 15&#xA;-18 11 -50 20 -70 20 -21 0 -38 4 -38 8 0 5 -13 7 -30 4 -16 -2 -30 -10 -30&#xA;-16 0 -15 38 -51 63 -59 9 -4 17 -10 17 -14 -1 -16 -50 -64 -60 -58 -17 10&#xA;-11 23 12 27 41 6 31 26 -14 27 -24 0 -51 1 -60 2 -10 0 -22 9 -28 19 -7 12&#xA;-17 16 -31 13 -19 -5 -21 -3 -17 20 3 15 0 28 -6 30 -6 2 -11 14 -11 28 0 14&#xA;-7 25 -17 27 -13 2 -18 -3 -18 -17 0 -11 -4 -23 -10 -26 -5 -3 -10 3 -10 15 0&#xA;13 -5 20 -12 17 -7 -2 -21 0 -30 5 -14 7 -19 3 -23 -19 -3 -16 -11 -45 -17&#xA;-65 -6 -20 -8 -50 -5 -66 7 -35 -12 -57 -42 -47 -38 12 -43 31 -17 56 25 24&#xA;20 49 -10 49 -8 0 -14 5 -14 11 0 7 10 9 25 5 22 -6 25 -3 24 21 -1 16 -3 21&#xA;-6 12 -6 -24 -53 -20 -53 4 0 10 -4 15 -10 12 -5 -3 -10 -15 -10 -26 0 -33&#xA;-16 -21 -41 34 -20 43 -28 52 -48 49 -13 -1 -30 3 -37 9 -9 7 -27 8 -51 3 -21&#xA;-4 -85 -8 -143 -9 -96 0 -105 -2 -108 -20 -8 -44 -23 -39 -21 7 3 56 -4 67&#xA;-29 45 -10 -10 -21 -16 -23 -15 -2 2 1 -2 8 -8 19 -17 16 -28 -11 -40 -20 -9&#xA;-26 -9 -30 3 -3 8 -10 11 -16 8 -19 -11 -10 18 12 42 12 13 19 25 17 28 -3 2&#xA;-34 0 -68 -6 -35 -5 -66 -7 -69 -5 -3 3 7 15 22 27 33 26 56 69 56 106 0 34&#xA;-14 60 -24 44 -7 -11 -46 -16 -46 -5 0 3 5 14 10 24 6 11 12 33 14 49 3 30 3&#xA;30 -24 16 l-28 -15 11 30 c8 21 18 30 34 30 13 0 32 9 42 19 11 11 32 28 48&#xA;38 15 9 32 23 36 30 4 7 17 13 28 13 28 0 66 26 125 86 51 52 51 52 57 130 4&#xA;59 2 84 -8 100 -10 16 -11 24 -3 32 9 9 9 18 1 34 -6 13 -23 59 -38 103 -41&#xA;126 -81 171 -203 233 -32 17 -60 22 -115 22 -65 0 -79 -4 -128 -33z m191 -172&#xA;c0 -8 -4 -15 -9 -15 -13 0 -22 16 -14 24 11 11 23 6 23 -9z m-166 -86 c4 -20&#xA;13 -33 26 -36 19 -5 19 -7 6 -22 -8 -9 -20 -30 -26 -46 -12 -29 -12 -30 -21&#xA;-7 -5 13 -17 22 -29 22 -27 0 -26 28 3 71 13 19 21 41 19 48 -3 8 0 11 5 8 6&#xA;-4 13 -21 17 -38z m84 14 c6 -15 12 -39 12 -54 0 -15 4 -39 10 -53 9 -24 7&#xA;-26 -15 -26 -29 0 -28 0 -15 36 8 21 7 31 -5 44 -9 10 -13 25 -9 36 4 13 3 15&#xA;-3 6 -8 -10 -12 -10 -23 3 -12 14 -11 18 1 26 23 14 33 10 47 -18z m122 3 c0&#xA;-3 -4 -8 -10 -11 -5 -3 -10 -1 -10 4 0 6 5 11 10 11 6 0 10 -2 10 -4z m-25&#xA;-36 c-3 -5 -10 -10 -16 -10 -5 0 -9 5 -9 10 0 6 7 10 16 10 8 0 12 -4 9 -10z&#xA;m55 -81 c0 -16 -4 -29 -10 -29 -5 0 -10 16 -10 36 0 21 4 33 10 29 6 -3 10&#xA;-19 10 -36z m-250 -65 c0 -8 -4 -12 -10 -9 -5 3 -10 13 -10 21 0 8 5 12 10 9&#xA;6 -3 10 -13 10 -21z m120 -4 c0 -5 -7 -10 -15 -10 -8 0 -15 5 -15 10 0 6 7 10&#xA;15 10 8 0 15 -4 15 -10z m-136 -27 c20 8 20 -2 0 -31 -19 -28 -34 -28 -26 0 3&#xA;14 2 19 -6 14 -7 -4 -12 -1 -12 7 0 20 12 29 21 16 4 -7 14 -9 23 -6z m24&#xA;-308 c-11 -25 -28 -34 -28 -15 0 17 23 49 32 44 4 -3 2 -16 -4 -29z m-54 -133&#xA;c3 -5 2 -18 -1 -30 -6 -26 -53 -32 -53 -7 0 8 7 15 15 15 8 0 15 7 15 15 0 16&#xA;15 20 24 7z m46 -23 c0 -6 -4 -7 -10 -4 -5 3 -10 11 -10 16 0 6 5 7 10 4 6 -3&#xA;10 -11 10 -16z m-75 -115 c1 -13 -3 -24 -7 -24 -4 0 -8 14 -8 32 0 36 15 29&#xA;15 -8z m101 -29 c-11 -8 -27 -15 -35 -15 -13 1 -12 4 3 15 11 8 27 15 35 15&#xA;13 -1 12 -4 -3 -15z m74 -59 c0 -3 -14 -14 -31 -26 -36 -27 -54 -17 -19 10 23&#xA;18 50 26 50 16z m-120 -32 c0 -9 -5 -14 -12 -12 -18 6 -21 28 -4 28 9 0 16 -7&#xA;16 -16z m200 -59 c0 -8 -7 -15 -16 -15 -14 0 -14 3 -4 15 7 8 14 15 16 15 2 0&#xA;4 -7 4 -15z m-220 -180 c0 -8 -4 -15 -10 -15 -5 0 -10 7 -10 15 0 8 5 15 10&#xA;15 6 0 10 -7 10 -15z m2209 -625 c21 -43 20 -45 -10 -30 -12 7 -19 21 -19 40&#xA;0 40 6 38 29 -10z m-199 -1503 c0 -33 -11 -67 -21 -67 -10 0 -12 83 -3 93 11&#xA;11 24 -3 24 -26z m-443 -359 c7 17 23 5 16 -13 -9 -25 -43 -18 -43 8 0 18 2&#xA;19 11 7 8 -11 12 -12 16 -2z m-38 -87 c14 -11 21 -23 16 -30 -5 -9 -14 -6 -31&#xA;10 -40 38 -28 53 15 20z m161 -163 c0 -5 -4 -8 -10 -8 -9 0 -40 52 -40 67 1&#xA;10 50 -49 50 -59z m370 -10 c0 -38 -5 -34 -13 10 -4 21 -3 31 3 27 6 -3 10&#xA;-20 10 -37z m-355 -188 c3 -5 2 -10 -4 -10 -5 0 -13 5 -16 10 -3 6 -2 10 4 10&#xA;5 0 13 -4 16 -10z m-71 -1586 c13 -5 14 -9 5 -21 -10 -11 -14 -11 -21 -1 -6&#xA;10 -10 10 -18 -2 -11 -17 -13 -10 -4 14 7 17 14 19 38 10z m61 -4 c-3 -5 -11&#xA;-10 -16 -10 -6 0 -7 5 -4 10 3 6 11 10 16 10 6 0 7 -4 4 -10z m65 -67 c0 -13&#xA;-3 -13 -15 -3 -8 7 -12 16 -9 21 8 13 24 1 24 -18z m-49 -66 c-20 -30 -21 -31&#xA;-21 -8 0 14 8 33 17 43 26 29 28 3 4 -35z m49 -68 c0 -15 -7 -32 -15 -39 -9&#xA;-7 -13 -21 -10 -31 4 -13 -11 -35 -55 -78 -34 -34 -67 -61 -74 -61 -8 0 -29&#xA;-3 -47 -6 l-34 -5 30 25 c20 17 36 23 52 20 14 -4 23 -2 23 5 0 6 21 32 48 57&#xA;39 38 43 45 22 39 -14 -4 -36 -9 -49 -12 -14 -3 -36 -19 -49 -35 -13 -15 -30&#xA;-28 -38 -28 -21 0 -17 27 7 44 12 8 27 25 33 38 8 16 19 22 34 20 15 -2 22 2&#xA;22 12 0 9 -7 16 -15 16 -19 0 -19 5 1 36 15 22 18 23 29 7 11 -15 14 -15 40 6&#xA;32 24 45 16 45 -30z m-220 -109 c0 -5 -4 -10 -10 -10 -5 0 -10 5 -10 10 0 6 5&#xA;10 10 10 6 0 10 -4 10 -10z"/>
<path d="M4654 8324 c3 -9 6 -18 6 -20 0 -3 4 -3 10 1 11 7 2 35 -12 35 -6 0&#xA;-7 -7 -4 -16z"/>
<path d="M1830 8596 c-45 -30 -61 -50 -77 -95 -16 -46 -17 -125 -2 -115 6 3&#xA;22 -6 36 -22 l24 -29 -6 33 c-6 31 6 44 20 21 5 -7 15 -5 30 5 21 14 24 14 29&#xA;-1 4 -9 14 -13 26 -10 11 3 20 1 20 -3 0 -5 7 -16 16 -25 12 -11 13 -19 5 -29&#xA;-6 -7 -8 -16 -4 -19 10 -10 13 -57 3 -57 -4 0 -10 -10 -13 -21 -6 -21 27 -79&#xA;45 -79 11 0 5 43 -7 52 -5 4 -6 11 -1 15 4 4 14 0 21 -11 8 -10 19 -15 25 -11&#xA;9 6 10 -1 5 -24 -4 -20 -3 -31 5 -31 6 0 8 5 4 11 -5 8 0 10 17 6 20 -4 28 1&#xA;47 31 38 58 55 213 32 291 -11 38 -70 105 -112 127 -44 23 -146 17 -188 -10z"/>
<path d="M5378 8562 c-59 -57 -59 -58 -69 -131 -5 -44 -5 -89 0 -110 5 -20 9&#xA;-43 8 -52 0 -8 10 -36 23 -62 25 -50 54 -62 65 -27 4 13 15 20 30 20 13 0 26&#xA;6 28 13 4 8 6 7 6 -3 1 -19 -10 -36 -29 -42 -12 -5 -12 -7 3 -13 26 -11 67 31&#xA;67 67 0 16 -6 31 -14 34 -10 4 -12 13 -6 33 4 15 3 35 -2 44 -7 13 -5 17 7 17&#xA;8 0 15 5 15 10 0 6 11 15 25 20 14 5 25 17 25 27 0 15 3 14 19 -6 13 -18 23&#xA;-22 40 -16 18 5 22 3 21 -12 -1 -10 -1 -31 0 -48 1 -27 3 -25 16 18 11 34 20&#xA;47 33 47 28 0 31 34 9 98 -33 95 -86 132 -189 132 l-71 0 -60 -58z"/>
<path d="M2770 8330 c0 -11 4 -20 8 -20 4 0 8 9 9 20 1 11 -2 20 -8 20 -5 0&#xA;-9 -9 -9 -20z"/>
<path d="M1474 8254 c-140 -121 -179 -186 -116 -199 15 -4 35 -10 44 -16 34&#xA;-18 69 -3 38 16 -8 5 -7 11 1 21 9 11 6 16 -15 25 -36 17 -33 26 10 27 20 1&#xA;42 6 50 12 9 8 19 8 36 -2 22 -13 22 -13 -15 -16 -46 -4 -39 -22 8 -22 33 0&#xA;34 -1 28 -32 -4 -22 -3 -29 5 -24 7 4 12 1 12 -8 0 -21 -12 -20 -44 5 -27 21&#xA;-56 18 -37 -5 6 -7 6 -17 1 -26 -14 -22 -12 -27 12 -33 13 -4 26 -1 30 6 5 8&#xA;8 5 8 -9 0 -29 -8 -34 -37 -21 -18 8 -29 8 -44 -1 -24 -16 -29 -15 -29 3 0 16&#xA;-25 21 -34 6 -6 -10 71 -94 99 -108 11 -6 42 -15 69 -22 41 -10 52 -9 73 4 13&#xA;9 32 13 43 10 23 -7 40 20 40 66 0 18 6 40 14 48 8 9 20 43 27 76 11 56 10 63&#xA;-10 105 -75 152 -87 166 -153 176 -31 6 -41 0 -114 -62z m206 -145 c0 -10 -7&#xA;-19 -15 -19 -15 0 -21 31 -9 43 11 10 24 -3 24 -24z"/>
<path d="M5560 8288 c0 -19 5 -28 16 -28 10 0 14 -7 12 -22 -2 -18 -8 -22 -28&#xA;-20 -22 4 -23 2 -10 -14 10 -11 14 -34 11 -67 -1 -27 1 -47 5 -45 5 2 26 12&#xA;46 21 29 13 45 31 68 77 48 96 41 121 -25 84 l-44 -24 -3 32 c-2 24 -8 32 -25&#xA;33 -19 1 -23 -3 -23 -27z"/>
<path d="M5812 8304 c-21 -9 -38 -27 -48 -52 -9 -20 -20 -44 -25 -52 -48 -83&#xA;-51 -94 -45 -149 4 -30 15 -68 25 -85 12 -19 17 -41 14 -56 -3 -17 3 -35 15&#xA;-50 17 -21 22 -22 36 -11 13 11 17 11 22 -3 7 -19 69 -22 123 -6 34 10 101 65&#xA;101 83 0 13 -32 36 -50 37 -11 0 -15 11 -15 40 0 39 0 40 28 34 19 -4 34 -1&#xA;47 11 10 9 24 14 29 10 18 -11 51 5 51 24 0 30 -55 96 -142 170 -88 76 -106&#xA;81 -166 55z m142 -160 c25 -9 19 -24 -9 -24 -24 0 -32 10 -18 23 8 8 8 8 27 1z&#xA;m-154 -35 c0 -25 -33 -22 -38 4 -2 12 3 17 17 17 15 0 21 -6 21 -21z m255 12&#xA;c17 -7 16 -9 -13 -15 -26 -6 -32 -12 -30 -29 3 -18 -2 -22 -27 -22 -16 0 -36&#xA;-4 -43 -8 -16 -10 -38 6 -45 33 -5 20 9 25 54 21 9 -1 22 5 29 14 13 16 43 18&#xA;75 6z m-185 -87 c0 -8 -4 -12 -10 -9 -5 3 -10 10 -10 16 0 5 5 9 10 9 6 0 10&#xA;-7 10 -16z m63 -66 c6 -21 2 -36 -7 -27 -10 11 -16 49 -8 49 5 0 12 -10 15&#xA;-22z"/>
<path d="M1843 8294 c-7 -20 11 -38 31 -31 23 9 20 34 -5 40 -13 3 -22 0 -26&#xA;-9z"/>
<path d="M1737 8287 c-14 -40 51 -150 103 -177 22 -11 43 -20 48 -20 16 0 -7&#xA;93 -30 125 -37 50 -113 96 -121 72z"/>
<path d="M4531 8174 c0 -11 3 -14 6 -6 3 7 2 16 -1 19 -3 4 -6 -2 -5 -13z"/>
<path d="M2935 7961 c-3 -5 -1 -12 5 -16 5 -3 10 1 10 9 0 18 -6 21 -15 7z"/>
<path d="M6032 7958 c3 -7 13 -15 24 -17 16 -3 17 -1 5 13 -16 19 -34 21 -29&#xA;4z"/>
<path d="M2960 7923 c0 -10 5 -25 10 -33 7 -11 10 -7 10 18 0 17 -4 32 -10 32&#xA;-5 0 -10 -8 -10 -17z"/>
<path d="M4465 7919 c-4 -6 -5 -13 -2 -16 7 -7 27 6 27 18 0 12 -17 12 -25 -2z"/>
<path d="M1121 7823 c-19 -3 -50 -16 -69 -31 -28 -21 -31 -28 -20 -36 8 -6 20&#xA;-21 27 -33 6 -13 20 -23 31 -23 35 0 32 -20 -10 -70 -33 -40 -41 -56 -36 -75&#xA;6 -24 4 -25 -39 -25 -37 0 -45 -3 -45 -18 0 -18 34 -55 80 -85 27 -18 70 -22&#xA;85 -8 6 5 28 11 51 14 50 5 64 13 64 36 0 32 26 45 60 31 32 -13 55 -5 30 10&#xA;-8 6 -10 10 -4 10 7 0 14 9 17 19 3 12 15 21 33 23 29 3 29 4 26 63 -3 61 -28&#xA;105 -59 105 -8 0 -16 7 -19 15 -5 12 -10 13 -20 4 -11 -9 -14 -8 -14 4 0 8&#xA;-20 24 -44 36 -25 11 -47 25 -51 31 -6 10 -11 10 -74 3z"/>
<path d="M6216 7800 c-27 -16 -53 -36 -58 -44 -5 -9 -22 -16 -38 -16 -42 0&#xA;-80 -58 -80 -121 0 -47 21 -82 35 -59 10 16 22 4 28 -30 7 -31 28 -39 57 -20&#xA;19 12 52 -17 45 -39 -5 -17 29 -46 44 -37 5 3 34 -1 65 -9 51 -14 60 -13 89 1&#xA;49 25 77 55 77 82 0 23 -3 24 -39 18 -38 -6 -63 6 -41 19 15 9 12 43 -4 52&#xA;-16 9 -66 79 -66 92 0 5 14 11 30 15 17 3 30 11 30 17 0 7 7 20 15 29 14 16&#xA;13 19 -17 42 -18 14 -53 27 -78 31 -38 4 -53 1 -94 -23z"/>
<path d="M4497 7524 c-8 -8 1 -24 14 -24 5 0 9 7 9 15 0 15 -12 20 -23 9z"/>
<path d="M2930 7510 c0 -5 4 -10 9 -10 6 0 13 5 16 10 3 6 -1 10 -9 10 -9 0&#xA;-16 -4 -16 -10z"/>
<path d="M2905 7450 c-3 -5 1 -10 9 -10 9 0 16 5 16 10 0 6 -4 10 -9 10 -6 0&#xA;-13 -4 -16 -10z"/>
<path d="M4515 7450 c-3 -5 1 -10 10 -10 9 0 13 5 10 10 -3 6 -8 10 -10 10 -2&#xA;0 -7 -4 -10 -10z"/>
<path d="M675 7368 c-55 -30 -115 -121 -115 -176 0 -22 0 -22 27 -5 15 10 36&#xA;26 46 36 15 15 21 16 33 6 13 -11 14 -9 9 13 -10 39 12 43 34 7 15 -24 17 -38&#xA;10 -62 -5 -18 -9 -51 -9 -75 0 -36 -4 -44 -25 -54 -34 -15 -68 1 -97 47 -13&#xA;19 -27 35 -32 35 -8 0 -4 -68 10 -155 8 -48 29 -75 59 -75 27 0 132 33 173 54&#xA;34 17 85 73 107 117 21 39 32 129 16 129 -6 0 -11 13 -11 29 0 51 -38 92 -110&#xA;117 -73 26 -96 28 -125 12z m169 -159 c11 -57 7 -92 -16 -116 -12 -13 -29 -23&#xA;-39 -23 -23 0 -41 -24 -32 -45 4 -13 3 -16 -5 -11 -19 11 -14 38 12 77 13 19&#xA;29 55 36 80 6 24 13 50 15 57 8 22 22 13 29 -19z"/>
<path d="M6630 7352 c-62 -27 -65 -30 -63 -61 1 -22 -3 -31 -11 -28 -17 7 -38&#xA;-27 -24 -41 6 -6 6 -12 -1 -16 -18 -12 -12 -77 10 -124 37 -75 92 -119 186&#xA;-148 120 -37 136 -30 155 66 28 143 20 173 -28 101 -22 -34 -47 -50 -76 -51&#xA;-5 0 -8 14 -8 30 0 17 -4 30 -10 30 -5 0 -10 -7 -10 -15 0 -8 -4 -15 -10 -15&#xA;-5 0 -7 7 -3 16 3 9 0 40 -7 71 -12 48 -12 58 2 81 9 15 21 28 26 30 15 5 23&#xA;-29 11 -45 -7 -7 -9 -16 -5 -20 3 -3 6 -1 6 5 0 18 25 14 64 -9 47 -27 60 -18&#xA;40 29 -23 56 -65 112 -95 128 -40 20 -75 17 -149 -14z m10 -164 c0 -30 14 -60&#xA;45 -96 18 -21 32 -72 20 -72 -3 0 -10 12 -15 26 -8 19 -16 25 -29 21 -33 -8&#xA;-61 43 -61 111 0 32 3 62 7 66 12 11 33 -25 33 -56z m55 13 c3 -5 1 -12 -5&#xA;-16 -5 -3 -10 1 -10 9 0 18 6 21 15 7z"/>
<path d="M670 7090 c0 -5 5 -10 10 -10 6 0 10 5 10 10 0 6 -4 10 -10 10 -5 0&#xA;-10 -4 -10 -10z"/>
<path d="M2165 5700 c-3 -5 -1 -10 4 -10 6 0 11 5 11 10 0 6 -2 10 -4 10 -3 0&#xA;-8 -4 -11 -10z"/>
<path d="M5305 5660 c-3 -5 1 -10 9 -10 9 0 16 5 16 10 0 6 -4 10 -9 10 -6 0&#xA;-13 -4 -16 -10z"/>
<path d="M2128 5653 c6 -2 18 -2 25 0 6 3 1 5 -13 5 -14 0 -19 -2 -12 -5z"/>
<path d="M1855 5460 c4 -6 11 -8 16 -5 14 9 11 15 -7 15 -8 0 -12 -5 -9 -10z"/>
<path d="M1763 4823 c9 -9 19 -14 23 -11 10 10 -6 28 -24 28 -15 0 -15 -1 1&#xA;-17z"/>
<path d="M5660 4824 c0 -17 22 -14 28 4 2 7 -3 12 -12 12 -9 0 -16 -7 -16 -16z"/>
<path d="M4982 3040 c0 -14 2 -19 5 -12 2 6 2 18 0 25 -3 6 -5 1 -5 -13z"/>
</g>
</svg>