<?xml version="1.0" standalone="no"?>
<!DOCTYPE svg PUBLIC "-//W3C//DTD SVG 20010904//EN"
 "http://www.w3.org/TR/2001/REC-SVG-20010904/DTD/svg10.dtd">
<svg version="1.0" xmlns="http://www.w3.org/2000/svg"
 width="512.000000pt" height="512.000000pt" viewBox="0 0 512.000000 512.000000"
 preserveAspectRatio="xMidYMid meet">

<g transform="translate(0.000000,512.000000) scale(0.100000,-0.100000)"
fill="#000000" stroke="none">
<path d="M2505 5070 c-169 -34 -376 -178 -525 -365 -198 -248 -321 -615 -361
-1070 -13 -154 -7 -551 11 -720 31 -284 91 -628 121 -692 13 -28 32 -47 56
-58 34 -16 41 -16 142 3 362 71 759 81 1045 27 203 -38 214 -27 331 341 78
243 126 429 152 581 25 149 25 555 0 728 -65 450 -170 738 -348 959 -166 207
-407 309 -624 266z"/>
<path d="M2525 1485 c-341 -46 -622 -84 -624 -84 -14 -3 29 -520 55 -660 63
-347 232 -588 471 -672 224 -80 557 -6 722 159 222 223 248 622 84 1320 -5 19
-12 22 -47 21 -22 -1 -320 -39 -661 -84z"/>
</g>
</svg>
